<svg width="500" height="500" viewBox="0 0 500 500" fill="none" xmlns="http://www.w3.org/2000/svg">
<path d="M59.0635 254.632L161.689 103.591C168.649 93.3474 183.151 91.8274 192.084 100.405L235.415 142.015C243.635 149.908 243.608 163.064 235.356 170.923L152.68 249.662C143.536 258.37 144.652 273.269 154.99 280.519L222.468 327.841C234.999 336.629 233.418 355.663 219.607 362.262L163.724 388.965C155.153 393.06 144.885 390.562 139.153 382.988L59.6582 277.941C54.483 271.103 54.2438 261.726 59.0635 254.632Z" fill="#00DF82"/>
<path d="M441.436 245.868L338.811 396.909C331.851 407.153 317.349 408.673 308.416 400.095L265.085 358.485C256.865 350.592 256.892 337.436 265.144 329.577L347.82 250.838C356.964 242.13 355.848 227.231 345.51 219.981L278.032 172.659C265.501 163.871 267.082 144.837 280.893 138.238L336.776 111.535C345.347 107.44 355.615 109.938 361.347 117.512L440.842 222.559C446.017 229.397 446.256 238.774 441.436 245.868Z" fill="#00DF82"/>
</svg>
