<svg width="250" height="250" viewBox="0 0 250 250" fill="none" xmlns="http://www.w3.org/2000/svg">
<path d="M33.5635 121.382L74.1888 61.5911C81.1489 51.3474 95.6513 49.8274 104.584 58.4053L110.165 63.7646C118.385 71.6579 118.358 84.8138 110.106 92.6732L85.1804 116.412C76.0364 125.12 77.1515 140.019 87.49 147.269L97.218 154.091C109.749 162.879 108.168 181.913 94.3573 188.512L89.2238 190.965C80.6533 195.06 70.3847 192.562 64.6528 184.988L34.1582 144.691C28.983 137.853 28.7438 128.476 33.5635 121.382Z" fill="url(#paint0_radial_26_204)"/>
<path d="M216.686 128.868L176.061 188.659C169.101 198.903 154.599 200.423 145.666 191.845L140.085 186.485C131.865 178.592 131.892 165.436 140.144 157.577L165.07 133.838C174.214 125.13 173.098 110.231 162.76 102.981L153.032 96.1588C140.501 87.3705 142.082 68.3374 155.893 61.7385L161.026 59.2855C169.597 55.1903 179.865 57.6881 185.597 65.2623L216.092 105.559C221.267 112.397 221.506 121.774 216.686 128.868Z" fill="url(#paint1_radial_26_204)"/>
<defs>
<radialGradient id="paint0_radial_26_204" cx="0" cy="0" r="1" gradientUnits="userSpaceOnUse" gradientTransform="translate(75.375 120) rotate(90) scale(78 49.875)">
<stop stop-color="white"/>
<stop offset="0.9999" stop-color="#74EDBB"/>
<stop offset="1" stop-color="#04DF84"/>
</radialGradient>
<radialGradient id="paint1_radial_26_204" cx="0" cy="0" r="1" gradientUnits="userSpaceOnUse" gradientTransform="translate(174.875 130.25) rotate(-90) scale(78 49.875)">
<stop stop-color="white"/>
<stop offset="0.9999" stop-color="#74EDBB"/>
<stop offset="1" stop-color="#04DF84"/>
</radialGradient>
</defs>
</svg>
